<svg width="609" height="205" viewBox="0 0 609 205" fill="none" xmlns="http://www.w3.org/2000/svg">
<path d="M606.296 115.881C604.9 114.407 602.883 113.554 600.711 113.554C598.539 113.554 596.6 114.485 595.126 115.881C593.729 117.355 592.799 119.372 592.799 121.544C592.799 123.716 593.652 125.81 595.126 127.206C596.522 128.68 598.539 129.534 600.711 129.534C602.883 129.534 604.822 128.603 606.296 127.206C607.693 125.733 608.623 123.716 608.623 121.544C608.623 119.372 607.77 117.277 606.296 115.881ZM605.133 126.043C603.969 127.206 602.418 127.905 600.711 127.905C599.004 127.905 597.453 127.206 596.289 126.043C595.126 124.879 594.505 123.328 594.505 121.544C594.505 119.76 595.203 118.208 596.289 117.045C597.453 115.881 599.004 115.183 600.711 115.183C602.418 115.183 603.969 115.881 605.133 117.045C606.296 118.208 606.917 119.76 606.917 121.544C606.917 123.328 606.219 124.879 605.133 126.043Z" fill="#282354"/>
<path d="M604.047 124.181C603.659 123.483 603.348 123.018 603.116 122.785C602.883 122.552 602.573 122.319 602.185 122.087C602.961 122.009 603.504 121.699 603.814 121.311C604.202 120.923 604.357 120.38 604.357 119.682C604.357 118.984 604.202 118.751 603.969 118.363C603.736 117.975 603.426 117.665 602.961 117.51C602.495 117.355 601.875 117.277 601.021 117.277H597.453V125.888H599.159V122.319H599.547C599.935 122.319 600.246 122.319 600.401 122.397C600.556 122.397 600.789 122.552 600.944 122.785C601.099 122.94 601.409 123.405 601.875 124.026L603.116 125.888H605.133L604.124 124.181H604.047ZM600.478 120.923H599.237V118.751H600.556C601.254 118.751 601.642 118.751 601.797 118.751C602.03 118.751 602.262 118.906 602.418 119.061C602.573 119.217 602.65 119.449 602.65 119.76C602.65 120.07 602.65 120.225 602.495 120.38C602.34 120.535 602.262 120.69 602.03 120.768C601.797 120.846 601.332 120.846 600.478 120.846V120.923Z" fill="#282354"/>
<path d="M65.9249 108.201C80.0431 97.5743 93.6959 85.7835 107.659 75.3114C116.58 106.96 124.725 139.463 133.336 169.948C134.034 169.948 134.732 169.948 135.43 169.948C142.256 138.299 149.16 106.65 156.064 74.7684H178.871C175.923 88.8087 173.208 102.616 170.26 116.346C164.442 143.186 158.392 169.87 152.806 196.71C151.953 200.744 150.479 202.062 146.523 201.907C139.154 201.675 131.784 201.597 124.492 201.907C120.536 202.062 118.985 200.744 117.976 196.943C110.607 169.095 102.927 141.324 95.3249 113.476C94.5492 110.529 93.6183 107.581 92.765 104.633H90.9033C84.3096 136.748 77.7159 168.862 71.0447 201.287H45.3681C51.8842 171.112 59.3312 138.221 65.8473 108.124" fill="#282354"/>
<path d="M65.9249 108.201C45.1354 126.431 21.8636 146.211 1.07413 164.441C0.841412 164.208 0.608695 163.975 0.375977 163.742C22.0963 141.635 47.5402 114.097 69.2605 91.9891L65.9249 108.201Z" fill="#282354"/>
<path d="M319.355 112.856C327.345 110.296 334.249 106.805 341.463 106.03C361.011 104.013 374.276 114.097 377.534 133.645C381.258 156.063 376.526 176.464 359.693 192.832C348.289 203.924 334.016 206.019 319.432 202.605C313.071 201.132 307.719 195.624 302.056 192.056C299.341 199.58 291.196 202.683 277.466 201.442C280.646 186.083 283.749 170.724 286.929 155.442C292.747 127.517 298.798 99.6687 304.383 71.7431C305.469 66.3907 307.409 64.2963 312.839 64.8393C317.803 65.3047 322.923 64.9168 329.75 64.9168C326.104 81.517 322.69 97.4967 319.355 112.856ZM354.495 147.297C353.564 138.609 352.866 129.766 343.635 125.81C336.654 122.785 329.827 124.181 323.776 129.223C311.442 139.463 306.245 164.285 313.537 178.326C316.097 183.29 319.82 185.85 325.483 185.928C332.853 186.005 338.826 183.29 343.48 177.705C350.849 168.862 352.711 158.08 354.418 147.297H354.495Z" fill="#282354"/>
<path d="M71.9756 74.2254L69.2605 91.9891L93.2305 74.5356C138.223 41.1025 186.628 13.0218 241.86 3.32539C263.115 -0.398021 284.292 0.37769 305.469 3.79082C332.697 8.21237 359.382 14.4956 384.128 26.9846C401.427 35.7501 417.174 46.6101 430.129 61.271C433.542 65.1495 434.861 68.5627 433.076 73.6048C431.37 78.4918 430.594 83.7666 429.275 89.5844C422.294 89.5844 415.467 89.8171 408.641 89.4293C406.934 89.3517 404.762 87.2573 403.831 85.6283C379.551 42.3436 339.679 25.2004 293.058 18.762C234.645 10.6946 183.06 28.3033 134.344 57.6251C127.285 61.8916 120.924 65.9252 113.865 71.2001L107.581 75.3114L93.0753 74.5356" fill="#282354"/>
<path d="M220.372 204.157C188.257 203.847 171.501 182.67 176.544 151.409C181.741 119.139 215.718 98.4275 246.98 108.279C268.079 114.95 275.681 132.016 273.82 154.279C271.725 178.791 256.056 196.477 232.629 202.45C228.052 203.614 223.165 203.769 220.527 204.157H220.372ZM200.824 158.7C200.669 174.525 204.237 181.584 211.606 184.376C221.07 187.945 231.775 184.919 238.834 176.542C246.747 167.156 250.082 156.063 249.074 144.039C247.755 128.525 239.765 122.164 224.716 125.19C220.295 126.043 215.795 128.991 212.537 132.093C204.004 140.316 201.134 151.098 200.824 158.7Z" fill="#282354"/>
<path d="M513.597 182.204C523.449 184.066 531.982 186.548 540.67 187.014C548.892 187.479 555.021 181.894 554.167 175.843C553.702 172.585 551.607 168.94 549.125 166.69C543.85 161.958 537.722 158.235 532.214 153.736C517.631 141.945 519.725 120.923 536.403 112.158C551.142 104.401 566.812 105.099 582.637 107.969C584.421 108.279 586.127 108.9 588.92 109.675C587.524 115.028 586.205 120.458 584.731 126.431C578.68 125.267 573.018 123.561 567.277 123.25C562.39 123.018 557.193 123.716 552.694 125.5C546.333 127.982 545.402 132.714 549.591 138.066C551.918 141.014 555.176 143.341 558.279 145.668C562.08 148.538 566.424 150.788 570.07 153.891C583.567 165.294 582.792 186.005 568.13 195.857C563.554 198.96 557.891 201.287 552.461 202.295C539.816 204.622 527.017 204.622 514.373 200.821C510.804 199.735 509.33 198.029 510.261 194.461C511.425 189.884 512.744 185.307 513.597 182.127V182.204Z" fill="#282354"/>
<path d="M425.785 201.907C429.353 184.919 432.689 168.94 436.102 152.882C441.92 125.888 447.815 98.893 453.4 71.8207C454.409 66.7785 456.193 64.2187 461.778 64.7617C466.976 65.3047 472.251 64.8393 478.224 64.8393C475.586 77.8712 473.104 90.1274 470.544 102.384C463.95 133.645 457.124 164.906 450.685 196.245C449.832 200.434 448.591 202.218 444.169 201.985C438.274 201.675 432.378 201.907 425.785 201.907Z" fill="#282354"/>
<path d="M382.034 201.907C388.627 171.422 394.988 142.255 401.272 113.088C402.047 109.675 403.676 108.124 407.4 108.279C413.295 108.589 419.191 108.357 425.785 108.357C421.363 128.991 417.096 148.771 412.908 168.552C410.891 177.938 408.641 187.246 406.934 196.633C406.236 200.511 404.995 202.14 400.806 201.907C394.911 201.52 389.015 201.83 382.034 201.83V201.907Z" fill="#282354"/>
<path d="M493.118 201.52H469.846C473.259 184.997 476.595 168.94 479.93 152.96C482.568 140.238 485.438 127.517 487.998 114.795C488.851 110.451 490.325 107.891 495.522 108.357C500.952 108.822 506.46 108.434 512.976 108.434C506.227 140.006 499.711 170.724 493.118 201.597V201.52Z" fill="#282354"/>
<path d="M521.897 67.7094C520.578 74.0702 519.492 80.1208 517.863 86.0162C517.475 87.4124 515.303 89.2741 513.83 89.3517C507.701 89.7396 501.573 89.5069 494.049 89.5069C495.678 81.6722 497.151 74.6908 498.548 67.7094H521.897Z" fill="#282354"/>
</svg>
