<svg width="518" height="65" viewBox="0 0 518 65" fill="none" xmlns="http://www.w3.org/2000/svg">
<path d="M126.588 23.6111H153.701C155.704 23.6111 157.336 25.2407 157.336 27.2407V33.7593C157.336 35.7593 155.704 37.3889 153.701 37.3889H126.588C124.585 37.3889 122.953 35.7593 122.953 33.7593V27.2407C122.953 25.2407 124.585 23.6111 126.588 23.6111Z" fill="#00B9EF"/>
<path d="M398.198 0.370361H371.066C351.946 0.370361 336.387 14.8518 336.387 32.6667C336.387 50.4815 351.946 64.4259 371.066 64.4259H398.198C417.318 64.4259 432.877 50.463 432.877 32.6667C432.877 14.8704 417.318 0.370361 398.198 0.370361ZM394.915 53.7037H373.681C359.42 53.7037 347.792 45.0555 347.792 32.6667C347.792 20.2778 359.402 10.2037 373.681 10.2037H394.915C409.176 10.2037 420.785 20.2963 420.785 32.6667C420.785 45.037 409.176 53.7037 394.915 53.7037Z" fill="#231916"/>
<path d="M505.536 0.370355V50.6481C505.536 54.3889 503.477 54.8704 501.456 54.8704C500.64 54.8704 499.323 54.4815 497.951 52.8889C496.579 51.2963 471.636 12.2592 469.707 9.25924C464.589 1.33332 458.765 0.351837 455.038 0.351837C446.173 0.351837 438.922 7.05554 438.922 15.0555V64.9815H450.773V13.8704C450.773 11.4259 452.85 10.3704 454.815 10.3704C455.539 10.3704 457.004 10.6667 457.95 12.0555C458.524 12.8889 486.583 56.3333 486.583 56.3333C489.847 61.5 496.245 64.8889 501.308 64.8889C511.767 64.8889 517.405 58.537 517.405 50.537V0.370355H505.554H505.536Z" fill="#231916"/>
<path d="M336.22 53.7037H293.344C279.454 53.7037 268.123 44.6296 268.123 31.6852C268.123 18.7407 279.046 10.3518 292.955 10.3518H336.294C339.206 6.49999 342.859 3.1111 347.087 0.370361H292.268C272.629 0.370361 256.736 13.3889 256.736 31.6852C256.736 49.9815 273.074 64.537 292.714 64.537H347.31C343.082 61.7778 339.15 57.5555 336.22 53.7037Z" fill="#231916"/>
<path d="M213.471 0C203.976 0 198.95 7.42593 198.301 8.35185C197.634 9.27778 166.144 53.5556 166.144 53.5556H111.437C109.156 53.5556 107.487 51.5741 107.468 49.4444V16.4815C107.468 13.1667 110.231 10.4074 113.439 10.4074H166.979C171.281 10.4074 174.786 6.85185 174.898 2.51852V0.259259H109.805C102.609 0.259259 96.8232 6.37037 96.6748 13.5926V60.4444C96.6748 62.9074 98.9744 64.5741 101.311 64.5556H171.318C174.286 64.3333 174.397 61.8333 179.979 54.5741C179.979 54.5741 206.776 15.6667 207.574 14.5556C208.297 13.537 210.912 10.4259 213.935 10.4259C215.993 10.4259 217.477 11.2778 218.923 13.2778C224.172 20.5926 244.738 53.7593 244.738 53.7593H204.18C200.879 53.7593 196.595 57.4815 196.595 62.1111V64.5741H264.6C264.6 64.5741 232.146 13.4815 226.304 6.31482C223.226 2.53704 219.387 0 213.471 0Z" fill="#231916"/>
<path d="M87.7177 20.0926C87.7177 9.4074 81.7092 0.370361 67.2626 0.370361H13.9458C6.24965 0.370361 0.203995 6.7037 0 14.1111C0 14.1111 0 55.2963 0 59.7037C0 62.8333 2.46647 64.4259 4.78459 64.4259H67.2812C78.3896 64.4259 87.7363 55.8518 87.7363 45.1667C87.7363 41.5 86.4567 36.7778 83.4524 32.9259C87.7363 29.5185 87.7363 23.2222 87.7363 20.0926H87.7177ZM68.5422 53.9074H14.6876C12.6662 53.9074 10.7746 52.1481 10.7746 49.8704V15.9074C10.7746 13.2407 13.5007 10.5185 16.0229 10.5185H68.5608C74.217 10.5185 77.5551 14.4815 77.5551 18.7963C77.5551 23.1111 73.9759 26.6852 70.6749 26.6852H33.1955C28.5964 26.6852 24.8688 30.3889 24.739 35.0185V37.4444H69.488C74.0315 37.4444 77.7034 41.1111 77.7034 45.6481C77.7034 50.1852 74.5693 53.9259 68.5979 53.9259L68.5422 53.9074Z" fill="#231916"/>
</svg>
